<?xml version="1.0" encoding="utf-8"?>
<!-- Generator: Adobe Illustrator 21.1.0, SVG Export Plug-In . SVG Version: 6.00 Build 0)  -->
<svg version="1.1" id="Layer_1" xmlns="http://www.w3.org/2000/svg" xmlns:xlink="http://www.w3.org/1999/xlink" x="0px" y="0px"
	 viewBox="0 0 364.2 258.8" style="enable-background:new 0 0 364.2 258.8;" xml:space="preserve">
<style type="text/css">
	.st0{fill:#FAFAFA;}
	.st1{fill:#F2E4F0;}
	.st2{fill:none;stroke:#800080;stroke-width:0.75;stroke-miterlimit:10;}
	.st3{fill:#F2E4F0;stroke:#800080;stroke-width:0.75;stroke-miterlimit:10;}
	.st4{fill:#FFFFFF;stroke:#FF4100;stroke-width:0.75;stroke-miterlimit:10;}
	.st5{fill:#FFFFFF;stroke:#FF4100;stroke-width:0.75;stroke-linecap:round;stroke-miterlimit:10;}
	.st6{fill:none;stroke:#FF4100;stroke-width:0.75;stroke-linecap:round;stroke-miterlimit:10;}
	.st7{fill:none;stroke:#FF4100;stroke-width:0.75;stroke-miterlimit:10;}
	.st8{fill:none;stroke:#C1A2DF;stroke-width:0.75;stroke-linecap:round;stroke-miterlimit:10;}
</style>
<g>
	<rect x="6.8" y="7.4" class="st0" width="244" height="244"/>
	<g>
		<g>
			<g>
				
					<rect x="222.8" y="84" transform="matrix(0.7211 -0.6928 0.6928 0.7211 -4.5609 184.4104)" class="st1" width="7.9" height="27.7"/>
				
					<rect x="254.8" y="110.3" transform="matrix(0.7211 -0.6928 0.6928 0.7211 -20.7905 218.218)" class="st1" width="11.8" height="49.2"/>
				
					<rect x="218.4" y="80" transform="matrix(0.7211 -0.6928 0.6928 0.7211 -0.6585 186.1348)" class="st2" width="25" height="27.7"/>
				<path class="st2" d="M215.2,86.6l1.6,1.7l9-8.6l-1.6-1.7c-2.4-2.5-6.3-2.6-8.8-0.2l0,0C212.9,80.1,212.8,84.1,215.2,86.6z"/>
				
					<rect x="235.8" y="102.3" transform="matrix(0.7211 -0.6928 0.6928 0.7211 -6.7058 199.5621)" class="st3" width="17.5" height="11.7"/>
				
					<rect x="275.9" y="146.6" transform="matrix(0.7211 -0.6928 0.6928 0.7211 -24.2618 239.4754)" class="st3" width="18.9" height="6.5"/>
				
					<rect x="288.9" y="151" transform="matrix(0.7211 -0.6928 0.6928 0.7211 -26.6057 244.6487)" class="st3" width="3.4" height="8.7"/>
				
					<rect x="250.6" y="105.6" transform="matrix(0.7211 -0.6928 0.6928 0.7211 -16.1006 220.3268)" class="st2" width="30.1" height="49.2"/>
			</g>
		</g>
		<g>
			<path class="st4" d="M157.9,167.9l53.9-53.9c0.3-0.3,0.8-0.3,1.1,0l24.5,24.5c0.3,0.3,0.3,0.8,0,1.1l-53.9,53.9
				c-0.3,0.3-0.8,0.3-1.1,0L157.9,169C157.6,168.7,157.6,168.2,157.9,167.9z"/>
			
				<rect x="230.6" y="128.7" transform="matrix(0.7071 -0.7071 0.7071 0.7071 -22.3132 204.8888)" class="st5" width="11.2" height="1.4"/>
			
				<rect x="216.8" y="114.3" transform="matrix(0.7071 -0.7071 0.7071 0.7071 -15.7369 191.9769)" class="st5" width="14.2" height="1.4"/>
			<g>
				<line class="st6" x1="227.9" y1="144.2" x2="206.7" y2="123"/>
				<line class="st6" x1="221.3" y1="150.9" x2="200.1" y2="129.7"/>
				<line class="st6" x1="214.6" y1="157.5" x2="193.5" y2="136.3"/>
				<line class="st6" x1="208" y1="164.1" x2="186.8" y2="142.9"/>
				<line class="st6" x1="201.4" y1="170.7" x2="180.2" y2="149.6"/>
				<line class="st6" x1="194.8" y1="177.4" x2="173.6" y2="156.2"/>
				<line class="st6" x1="188.1" y1="184" x2="166.9" y2="162.8"/>
			</g>
		</g>
		<g>
			<path class="st4" d="M329.9,47.4L276,101.3c-0.3,0.3-0.8,0.3-1.1,0l-24.5-24.5c-0.3-0.3-0.3-0.8,0-1.1l53.9-53.9
				c0.3-0.3,0.8-0.3,1.1,0l24.5,24.5C330.2,46.6,330.2,47.1,329.9,47.4z"/>
			
				<rect x="244" y="86" transform="matrix(0.7071 -0.7071 0.7071 0.7071 12.1126 202.6979)" class="st6" width="13.5" height="1.4"/>
			
				<rect x="259.3" y="98.6" transform="matrix(0.7071 -0.7071 0.7071 0.7071 7.3696 216.42)" class="st6" width="11.2" height="1.4"/>
			<g>
				<line class="st6" x1="259.9" y1="71.1" x2="281.1" y2="92.3"/>
				<line class="st6" x1="266.5" y1="64.4" x2="287.7" y2="85.6"/>
				<line class="st6" x1="273.1" y1="57.8" x2="294.3" y2="79"/>
				<line class="st6" x1="279.8" y1="51.2" x2="300.9" y2="72.4"/>
				<line class="st6" x1="286.4" y1="44.6" x2="307.6" y2="65.7"/>
				<line class="st6" x1="293" y1="37.9" x2="314.2" y2="59.1"/>
				<line class="st6" x1="299.6" y1="31.3" x2="320.8" y2="52.5"/>
			</g>
		</g>
		<path class="st1" d="M296.5,155.5c-6,7.1-9.7,16.3-9.7,26.3c0,6.4,1.5,12.5,4.2,18c2.7-3.7,6.9-8.7,12.2-14.4
			c-2.7-5.4-4.2-11.5-4.2-17.9c0-5.8,1.2-11.4,3.4-16.4C300.4,152.4,298.4,153.9,296.5,155.5z"/>
		<path class="st7" d="M287.7,205.6c-3.2-5.8-5-12.5-5-19.5c0-22.5,18.2-40.8,40.8-40.8c7.4,0,14.3,2,20.3,5.4"/>
		
			<ellipse transform="matrix(0.7071 -0.7071 0.7071 0.7071 -33.5675 275.4225)" class="st7" cx="315.7" cy="178.2" rx="39.2" ry="4"/>
		<g>
			<g>
				<path class="st8" d="M356.9,189.2c0.1,0.9,0.1,1.9,0.1,2.8c0,14.7-11.9,26.7-26.7,26.7c-1,0-2.1-0.1-3.1-0.2"/>
				<path class="st8" d="M349.9,189c0.1,1,0.2,1.9,0.2,2.9c0,10.9-8.8,19.7-19.7,19.7c-1.1,0-2.3-0.1-3.3-0.3"/>
				<line class="st7" x1="328.8" y1="190.4" x2="302.6" y2="186.2"/>
				<line class="st7" x1="328.8" y1="190.4" x2="327.3" y2="162"/>
				<polyline class="st4" points="314.1,174.7 331.7,192.3 330.7,193.3 313.1,175.7 				"/>
				<circle class="st4" cx="330.4" cy="192" r="1.7"/>
				<path class="st8" d="M343.3,188.6c0.3,1.1,0.4,2.2,0.4,3.4c0,7.4-6,13.4-13.4,13.4c-1.2,0-2.3-0.1-3.3-0.4"/>
			</g>
		</g>
	</g>
</g>
</svg>
