<?xml version="1.0" encoding="utf-8"?>
<!-- Generator: Adobe Illustrator 21.1.0, SVG Export Plug-In . SVG Version: 6.00 Build 0)  -->
<svg version="1.1" id="Layer_1" xmlns="http://www.w3.org/2000/svg" xmlns:xlink="http://www.w3.org/1999/xlink" x="0px" y="0px"
	 viewBox="0 0 385.7 287.6" style="enable-background:new 0 0 385.7 287.6;" xml:space="preserve">
<style type="text/css">
	.st0{fill:#E2E2E2;}
	.st1{fill:none;stroke:#FF7900;stroke-width:3;stroke-miterlimit:10;}
	.st2{fill:#891280;}
	.st3{fill:#FFA100;}
	.st4{fill:#C90061;}
	.st5{fill:#FF6100;}
	.st6{fill:#FF1E00;}
	.st7{fill:#FF8000;}
	.st8{fill:#FF4100;}
	.st9{fill:#FF7900;}
	.st10{fill:#DB0033;}
	.st11{fill:#A90080;}
	.st12{fill:#FF9200;}
	.st13{fill:#FFA101;}
	.st14{fill:#C80061;}
	.st15{fill:#FF3E00;}
	.st16{fill:#FFFFFF;}
	.st17{fill:#FAFAFA;}
	.st18{fill:#F2E4F0;stroke:#800080;stroke-width:0.75;stroke-miterlimit:10;}
	.st19{fill:#FFFFFF;stroke:#800080;stroke-width:0.75;stroke-miterlimit:10;}
	.st20{fill:#F2E4F0;}
	.st21{fill:none;stroke:#FF4100;stroke-width:0.75;stroke-miterlimit:10;}
	.st22{fill:#FFFFFF;stroke:#FF4100;stroke-width:0.75;stroke-miterlimit:10;}
	.st23{fill:#FFFFFF;stroke:#C1A2DF;stroke-width:0.75;stroke-linecap:round;stroke-miterlimit:10;}
	.st24{fill:none;stroke:#800080;stroke-width:0.75;stroke-miterlimit:10;}
	.st25{fill:none;stroke:#800080;stroke-width:0.75;stroke-linecap:round;stroke-miterlimit:10;}
	.st26{fill:none;stroke:#FF4100;stroke-width:0.75;stroke-linecap:round;stroke-miterlimit:10;}
	.st27{fill:#F2E4F0;stroke:#A900A9;stroke-width:0.75;stroke-miterlimit:10;}
	.st28{fill:#FFFFFF;stroke:#A900A9;stroke-width:0.75;stroke-miterlimit:10;}
	.st29{fill:none;stroke:#FFFFFF;stroke-width:3;stroke-linecap:round;stroke-miterlimit:10;}
	.st30{fill:none;stroke:#800080;stroke-width:0.6754;stroke-linecap:round;stroke-miterlimit:10;}
	.st31{fill:#FFFFFF;stroke:#FF4100;stroke-width:0.6754;stroke-linecap:round;stroke-miterlimit:10;}
	.st32{fill:#FFFFFF;stroke:#000000;stroke-width:0.75;stroke-linecap:round;stroke-miterlimit:10;}
	.st33{fill:#FFFFFF;stroke:#000000;stroke-width:0.75;stroke-miterlimit:10;}
	.st34{fill:none;stroke:#000000;stroke-width:0.75;stroke-linecap:round;stroke-miterlimit:10;}
	.st35{fill:none;stroke:#000000;stroke-width:0.75;stroke-linecap:round;stroke-miterlimit:10;stroke-dasharray:12.7016,12.7016;}
	.st36{fill:none;stroke:#000000;stroke-width:0.75;stroke-linecap:round;stroke-miterlimit:10;stroke-dasharray:8.1608,8.1608;}
	.st37{fill:#FFFFFF;stroke:#C1A2DF;stroke-width:0.7377;stroke-linecap:round;stroke-miterlimit:10;}
	.st38{fill:#F2E4F0;stroke:#FF4100;stroke-width:0.6683;stroke-linecap:round;stroke-miterlimit:10;}
	.st39{fill:#FFFFFF;stroke:#800080;stroke-width:0.6683;stroke-miterlimit:10;}
	.st40{fill:#F2E4F0;stroke:#FF4100;stroke-width:0.6683;stroke-miterlimit:10;}
	.st41{fill:none;stroke:#800080;stroke-width:0.6683;stroke-linecap:round;stroke-miterlimit:10;}
	.st42{fill:none;stroke:#800080;stroke-width:0.6683;stroke-linecap:round;stroke-miterlimit:10;stroke-dasharray:12.7016,12.7016;}
	.st43{fill:none;stroke:#800080;stroke-width:0.6683;stroke-linecap:round;stroke-miterlimit:10;stroke-dasharray:8.1608,8.1608;}
	.st44{fill:#F2E4F0;stroke:#800080;stroke-width:0.6683;stroke-miterlimit:10;}
	.st45{fill:#800080;}
	.st46{fill:none;stroke:#800080;stroke-width:0.5684;stroke-miterlimit:10;}
	.st47{fill:none;stroke:#800080;stroke-width:0.6116;stroke-linecap:round;stroke-miterlimit:10;}
	.st48{fill:#FFFFFF;stroke:#FF4100;stroke-width:0.75;stroke-linecap:round;stroke-miterlimit:10;}
	.st49{fill:none;stroke:#C1A2DF;stroke-width:0.75;stroke-linecap:round;stroke-miterlimit:10;}
	.st50{fill:none;stroke:#800080;stroke-width:1.3026;stroke-linecap:round;stroke-miterlimit:10;}
	.st51{fill:#FFFFFF;stroke:#FF7900;stroke-width:0.75;stroke-miterlimit:10;}
	.st52{fill:none;stroke:#FF7900;stroke-width:0.75;stroke-miterlimit:10;}
	.st53{fill:none;stroke:#FF7900;stroke-width:0.75;stroke-linecap:round;stroke-miterlimit:10;}
</style>
<g>
	<rect x="148.9" y="53.4" class="st17" width="224.9" height="224.9"/>
	<g>
		<path class="st20" d="M65,172.3l-30.5,10c-6,2-12.5-1.3-14.5-7.3l-1.3-3.9c-2.1-6.1,1.2-12.8,7.4-14.8l27.5-9.1l17-28.1l2.3-1.2
			l19.9,16.6L75,163.2L65,172.3z"/>
		<path class="st16" d="M62.3,152.4l17.2-28.6l-6.8-5.7l-2.3,1.2l-17,28.1L26,156.4c-4.7,1.5-7.7,5.8-8,10.4L62.3,152.4z"/>
		<line class="st24" x1="92.5" y1="134.6" x2="75.9" y2="161.8"/>
		<path class="st24" d="M65,172.3l-30.5,10c-6,2-12.5-1.3-14.5-7.3l-1.3-3.9c-2.1-6.1,1.2-12.8,7.4-14.8l27.5-9.1l17-28.1"/>
		<path class="st24" d="M65.1,170.6c-1.7-3.2-2-7.1-0.6-10.8c2.6-6.6,10.1-9.8,16.7-7.2"/>
		<line class="st25" x1="28.1" y1="155.7" x2="34.7" y2="176"/>
		<line class="st25" x1="32.6" y1="154.2" x2="36.7" y2="167"/>
		<line class="st25" x1="53.4" y1="147.3" x2="62.7" y2="152.6"/>
		<line class="st25" x1="55.7" y1="144" x2="62.3" y2="147.5"/>
		<line class="st25" x1="57.2" y1="141.2" x2="67.4" y2="146.6"/>
		<path class="st20" d="M181.7,14.8L181.7,14.8L181.7,14.8c-3.6,1.5-6.4,4.3-7.9,7.9v0v0c-1.5-3.6-4.3-6.4-7.9-7.9l0,0l0,0
			c3.6-1.5,6.4-4.3,7.9-7.9v0v0C175.3,10.5,178.1,13.3,181.7,14.8z"/>
		<path class="st20" d="M151.7,37.7l1.3,0.4l-1.3,0.4c-1.8,0.5-3.3,1.9-3.8,3.8l-0.4,1.3l-0.4-1.3c-0.5-1.8-1.9-3.3-3.8-3.8
			l-1.3-0.4l1.3-0.4c1.8-0.5,3.3-1.9,3.8-3.8l0.4-1.3l0.4,1.3C148.5,35.7,149.9,37.2,151.7,37.7z"/>
		<circle class="st20" cx="101.5" cy="14.8" r="3.5"/>
		<polygon class="st20" points="118.5,187.3 181.3,237.7 191.1,226.7 135.4,181.8 118.9,182.6 		"/>
		<path class="st21" d="M84.7,79l45.4-4.8c7.4-0.8,14,4.6,14.7,12.1l4.1,41.6c0.6,6.3-4,11.9-10.3,12.6l-4.1,0.5
			c-6.4,0.7-12.2-4-12.8-10.4l-2.9-28.8l-27.2,2.7"/>
		<path class="st21" d="M145.3,91.5c-3.4,2.1-7.6,2.8-11.7,1.4c-7.4-2.4-11.5-10.3-9.1-17.7"/>
		<line class="st26" x1="121.3" y1="128.2" x2="142.6" y2="126.2"/>
		<path class="st20" d="M102.4,142.5l-33.6,22.3c-6.1,4.1-7.8,12.3-3.8,18.5l30.9,47.5c3.9,6.4,4.2,10.8,2.1,15l0,0
			c-1.7,3.5-1.5,7.6,0.7,10.9l3.7,5.6l35.4-22l-26.3-40l-8.6-7.2c0,0-7.1-9,0.3-18.3c7.4-9.3,14.7-18.4,14.7-18.4l-0.3-1
			L102.4,142.5z"/>
		<path class="st27" d="M61.5,84.3L61.5,84.3c-8.7-7.5-21.8-6.5-29.3,2.2L22,98.3c2.6,10.8,10.6,20.1,21.9,23.7
			c3.7,1.2,7.5,1.7,11.2,1.6l8.6-10C71.2,104.9,70.2,91.8,61.5,84.3z"/>
		<path class="st21" d="M49.7,58.1l12.7-15.2c4.7-5.7,13.2-6.5,18.9-1.7l40.3,33.9"/>
		<path class="st21" d="M145.7,95.4l9.1,8.2c14.7,13.1,16.3,35.6,3.7,50.7l-23.1,27.6l55.7,44.9l-27,31.7l-5.3-4.2
			c-3-2.4-4.5-6.3-3.9-10.1l0,0c0.7-4.7-0.9-8.7-6.6-13.7l-43.9-35.8c-5.7-4.6-6.6-13-2-18.7l25.3-31.5"/>
		<line class="st21" x1="158.8" y1="254.3" x2="185.4" y2="222.2"/>
		<path class="st21" d="M108.2,168.6l6.1,5.1c5.5,4.7,6.2,13,1.6,18.5l-6,7.1"/>
		<line class="st21" x1="135.4" y1="181.8" x2="118.9" y2="182.6"/>
		<line class="st21" x1="118.5" y1="102.1" x2="128.7" y2="90.8"/>
		<line class="st21" x1="74.6" y1="65.1" x2="88.8" y2="48.1"/>
		<line class="st21" x1="78.5" y1="68.8" x2="93.2" y2="51.3"/>
		<line class="st21" x1="81.9" y1="73.3" x2="97.3" y2="54.8"/>
		
			<ellipse transform="matrix(0.3057 -0.9521 0.9521 0.3057 -34.287 121.6391)" class="st28" cx="66.3" cy="84.3" rx="9.7" ry="9.7"/>
		<path class="st29" d="M38,112.9c-4.8-3-8.3-7.5-10.1-12.6"/>
		<line class="st21" x1="162.3" y1="203.1" x2="143" y2="225.8"/>
		<line class="st26" x1="166.1" y1="206.3" x2="155.3" y2="219"/>
		<line class="st21" x1="118.3" y1="156" x2="72.7" y2="118"/>
		<line class="st26" x1="109.6" y1="135.7" x2="79.9" y2="111"/>
		<line class="st26" x1="112.8" y1="102.3" x2="111.9" y2="85.7"/>
		<line class="st26" x1="109.6" y1="102.5" x2="109.1" y2="90.9"/>
		<line class="st21" x1="189.2" y1="228.8" x2="183.5" y2="224.2"/>
		<path class="st16" d="M69,164.6l-0.3,0.2c-6.1,4.1-7.8,12.3-3.8,18.5l30.9,47.5c3.9,6.4,4.2,10.8,2.1,15l0,0
			c-1.7,3.5-1.5,7.6,0.7,10.9l3.7,5.6l20.9-13L69,164.6z"/>
		<line class="st21" x1="182.3" y1="237.4" x2="176.6" y2="232.8"/>
		<line class="st21" x1="180.1" y1="240.4" x2="174.4" y2="235.8"/>
		<g>
			<line class="st24" x1="82.7" y1="176" x2="100.1" y2="180"/>
			<path class="st24" d="M111.4,200.3l26.3,40l-35.4,22l-3.7-5.6c-2.1-3.2-2.4-7.4-0.7-10.9l0,0c2.1-4.3,1.8-8.6-2.1-15l-30.9-47.5
				c-4-6.2-2.3-14.4,3.8-18.5l33.6-22.3"/>
			<line class="st24" x1="98.6" y1="256.7" x2="133.7" y2="234.2"/>
			<path class="st24" d="M76.5,159.7l4.2,6.8c3.9,6.2,2,14.3-4.2,18.1l-7.9,4.9"/>
			<line class="st24" x1="117.5" y1="209" x2="92.2" y2="224.7"/>
			<line class="st25" x1="108.6" y1="219.5" x2="94.4" y2="228.3"/>
			<line class="st24" x1="107.7" y1="250.9" x2="111.4" y2="256.5"/>
			<line class="st25" x1="110.5" y1="249" x2="113" y2="252.8"/>
		</g>
		
			<ellipse transform="matrix(0.3057 -0.9521 0.9521 0.3057 -48.9145 114.3853)" class="st21" cx="54" cy="90.7" rx="32.9" ry="32.9"/>
	</g>
</g>
</svg>
