<?xml version="1.0" encoding="utf-8"?>
<!-- Generator: Adobe Illustrator 21.1.0, SVG Export Plug-In . SVG Version: 6.00 Build 0)  -->
<svg version="1.1" id="Layer_1" xmlns="http://www.w3.org/2000/svg" xmlns:xlink="http://www.w3.org/1999/xlink" x="0px" y="0px"
	 viewBox="0 0 415.5 279.7" style="enable-background:new 0 0 415.5 279.7;" xml:space="preserve">
<style type="text/css">
	.st0{fill:#E2E2E2;}
	.st1{fill:none;stroke:#FF7900;stroke-width:3;stroke-miterlimit:10;}
	.st2{fill:#891280;}
	.st3{fill:#FFA100;}
	.st4{fill:#C90061;}
	.st5{fill:#FF6100;}
	.st6{fill:#FF1E00;}
	.st7{fill:#FF8000;}
	.st8{fill:#FF4100;}
	.st9{fill:#FF7900;}
	.st10{fill:#DB0033;}
	.st11{fill:#A90080;}
	.st12{fill:#FF9200;}
	.st13{fill:#FFA101;}
	.st14{fill:#C80061;}
	.st15{fill:#FF3E00;}
	.st16{fill:#FFFFFF;}
	.st17{fill:#FAFAFA;}
	.st18{fill:#F2E4F0;stroke:#800080;stroke-width:0.75;stroke-miterlimit:10;}
	.st19{fill:#FFFFFF;stroke:#800080;stroke-width:0.75;stroke-miterlimit:10;}
	.st20{fill:#F2E4F0;}
	.st21{fill:none;stroke:#FF4100;stroke-width:0.75;stroke-miterlimit:10;}
	.st22{fill:#FFFFFF;stroke:#FF4100;stroke-width:0.75;stroke-miterlimit:10;}
	.st23{fill:#FFFFFF;stroke:#C1A2DF;stroke-width:0.75;stroke-linecap:round;stroke-miterlimit:10;}
	.st24{fill:none;stroke:#800080;stroke-width:0.75;stroke-miterlimit:10;}
	.st25{fill:none;stroke:#800080;stroke-width:0.75;stroke-linecap:round;stroke-miterlimit:10;}
	.st26{fill:none;stroke:#FF4100;stroke-width:0.75;stroke-linecap:round;stroke-miterlimit:10;}
	.st27{fill:#F2E4F0;stroke:#A900A9;stroke-width:0.75;stroke-miterlimit:10;}
	.st28{fill:#FFFFFF;stroke:#A900A9;stroke-width:0.75;stroke-miterlimit:10;}
	.st29{fill:none;stroke:#FFFFFF;stroke-width:3;stroke-linecap:round;stroke-miterlimit:10;}
	.st30{fill:none;stroke:#800080;stroke-width:0.6754;stroke-linecap:round;stroke-miterlimit:10;}
	.st31{fill:#FFFFFF;stroke:#FF4100;stroke-width:0.6754;stroke-linecap:round;stroke-miterlimit:10;}
	.st32{fill:#FFFFFF;stroke:#000000;stroke-width:0.75;stroke-linecap:round;stroke-miterlimit:10;}
	.st33{fill:#FFFFFF;stroke:#000000;stroke-width:0.75;stroke-miterlimit:10;}
	.st34{fill:none;stroke:#000000;stroke-width:0.75;stroke-linecap:round;stroke-miterlimit:10;}
	.st35{fill:none;stroke:#000000;stroke-width:0.75;stroke-linecap:round;stroke-miterlimit:10;stroke-dasharray:12.7016,12.7016;}
	.st36{fill:none;stroke:#000000;stroke-width:0.75;stroke-linecap:round;stroke-miterlimit:10;stroke-dasharray:8.1608,8.1608;}
	.st37{fill:#FFFFFF;stroke:#C1A2DF;stroke-width:0.7377;stroke-linecap:round;stroke-miterlimit:10;}
	.st38{fill:#F2E4F0;stroke:#FF4100;stroke-width:0.6683;stroke-linecap:round;stroke-miterlimit:10;}
	.st39{fill:#FFFFFF;stroke:#800080;stroke-width:0.6683;stroke-miterlimit:10;}
	.st40{fill:#F2E4F0;stroke:#FF4100;stroke-width:0.6683;stroke-miterlimit:10;}
	.st41{fill:none;stroke:#800080;stroke-width:0.6683;stroke-linecap:round;stroke-miterlimit:10;}
	.st42{fill:none;stroke:#800080;stroke-width:0.6683;stroke-linecap:round;stroke-miterlimit:10;stroke-dasharray:12.7016,12.7016;}
	.st43{fill:none;stroke:#800080;stroke-width:0.6683;stroke-linecap:round;stroke-miterlimit:10;stroke-dasharray:8.1608,8.1608;}
	.st44{fill:#F2E4F0;stroke:#800080;stroke-width:0.6683;stroke-miterlimit:10;}
	.st45{fill:#800080;}
	.st46{fill:none;stroke:#800080;stroke-width:0.5684;stroke-miterlimit:10;}
	.st47{fill:none;stroke:#800080;stroke-width:0.6116;stroke-linecap:round;stroke-miterlimit:10;}
	.st48{fill:#FFFFFF;stroke:#FF4100;stroke-width:0.75;stroke-linecap:round;stroke-miterlimit:10;}
	.st49{fill:none;stroke:#C1A2DF;stroke-width:0.75;stroke-linecap:round;stroke-miterlimit:10;}
	.st50{fill:none;stroke:#800080;stroke-width:1.3026;stroke-linecap:round;stroke-miterlimit:10;}
	.st51{fill:#FFFFFF;stroke:#FF7900;stroke-width:0.75;stroke-miterlimit:10;}
	.st52{fill:none;stroke:#FF7900;stroke-width:0.75;stroke-miterlimit:10;}
	.st53{fill:none;stroke:#FF7900;stroke-width:0.75;stroke-linecap:round;stroke-miterlimit:10;}
</style>
<g>
	<polygon class="st17" points="6,250.7 147.3,6 288.6,250.7 	"/>
	<g>
		<rect x="255.7" y="186.6" class="st37" width="20.2" height="57.5"/>
		<path class="st16" d="M141.5,234.3c0.2,0,0.4,0,0.6,0c2.5-12.3,13.2-21.6,26.2-22.1c-0.5-1.3-0.7-2.8-0.7-4.2
			c0-7.3,5.9-13.2,13.2-13.2c5.8,0,10.7,3.8,12.5,9c4.2-3.4,9.6-5.4,15.4-5.4c13,0,23.7,10,24.7,22.7c3.6-2,7.7-3.1,12.1-3.1
			c13.7,0,24.8,11.1,24.8,24.8s-11.1,24.8-24.8,24.8c-13,0-30.6,13.3-31.7,0.6c-3.6,2-10.8,0.8-15.2,0.8c-4.4,0-3-8.3-6.6-10.3
			c-2.3,12.9-9.1,8.9-22.7,8.9c-8.2,0-15.5-3.5-20.6-9.1c-2.1,1.3-4.5,2.1-7.2,2.1c-7.3,0-13.2-5.9-13.2-13.2
			C128.3,240.2,134.2,234.3,141.5,234.3z"/>
		<path class="st23" d="M193.2,203.8c-1.7-5.2-6.7-9-12.5-9c-7.3,0-13.2,5.9-13.2,13.2s5.9,13.2,13.2,13.2"/>
		<path class="st23" d="M141.5,234.3c-7.3,0-13.2,5.9-13.2,13.2c0,7.3,5.9,13.2,13.2,13.2"/>
		<path class="st23" d="M233.3,223.3c0-13.7-11.1-24.8-24.8-24.8c-7,0-13.3,2.9-17.8,7.6"/>
		<path class="st23" d="M270.1,242.9c0-13.7-11.1-24.8-24.8-24.8c-7.4,0-14.1,3.2-18.6,8.4"/>
		<path class="st23" d="M193.5,226.6c-4.7-8.5-13.8-14.3-24.3-14.3c-15.3,0-27.7,12.4-27.7,27.7"/>
		<path class="st16" d="M395.9,234.3c-0.2,0-0.4,0-0.6,0c-2.5-12.3-13.2-21.6-26.2-22.1c0.5-1.3,0.7-2.8,0.7-4.2
			c0-7.3-5.9-13.2-13.2-13.2c-5.8,0-10.7,3.8-12.5,9c-4.2-3.4-9.6-5.4-15.4-5.4c-13,0-23.7,10-24.7,22.7c-3.6-2-7.7-3.1-12.1-3.1
			c-13.7,0-24.8,11.1-24.8,24.8s11.1,24.8,24.8,24.8c13,0,30.6,13.3,31.7,0.6c3.6,2,10.8,0.8,15.2,0.8c4.4,0,3-8.3,6.6-10.3
			c2.3,12.9,9.1,8.9,22.7,8.9c8.2,0,15.5-3.5,20.6-9.1c2.1,1.3,4.5,2.1,7.2,2.1c7.3,0,13.2-5.9,13.2-13.2
			C409.1,240.2,403.2,234.3,395.9,234.3z"/>
		<path class="st23" d="M344.2,203.8c1.7-5.2,6.7-9,12.5-9c7.3,0,13.2,5.9,13.2,13.2s-5.9,13.2-13.2,13.2"/>
		<path class="st23" d="M395.9,234.3c7.3,0,13.2,5.9,13.2,13.2c0,7.3-5.9,13.2-13.2,13.2"/>
		<path class="st23" d="M304.1,223.3c0-13.7,11.1-24.8,24.8-24.8c7,0,13.3,2.9,17.8,7.6"/>
		<path class="st23" d="M267.3,242.9c0-13.7,11.1-24.8,24.8-24.8c7.4,0,14.1,3.2,18.6,8.4"/>
		<path class="st23" d="M343.9,226.6c4.7-8.5,13.8-14.3,24.3-14.3c15.3,0,27.7,12.4,27.7,27.7"/>
	</g>
	<g>
		<g>
			<path class="st38" d="M288.7,103.8V79.7c0-6.3,5.1-11.4,11.4-11.4h0c6.3,0,11.4,5.1,11.4,11.4v67.7"/>
			<path class="st38" d="M242.9,103.8V79.7c0-6.3-5.1-11.4-11.4-11.4h0c-6.3,0-11.4,5.1-11.4,11.4v67.7"/>
			<path class="st39" d="M288.7,126.8c0,0,0-17.5,0-46.5c0-32.9-10.7-52.7-17.8-62.2c-3-4-9.5-3.9-12.4,0.1
				c-6.5,8.9-15.6,27.5-15.6,62.1c0,29.1,0,46.5,0,46.5"/>
			<path class="st39" d="M288.7,177.7h23c4.2,0,6.8-4.7,4.5-8.3l-41.6-64.9"/>
			<path class="st39" d="M257,104.5l-41.6,64.9c-2.3,3.6,0.3,8.3,4.5,8.3h23h41.8"/>
			<rect x="251.8" y="177.7" class="st39" width="28" height="16.4"/>
			<rect x="279.8" y="177.7" class="st40" width="20.8" height="11.8"/>
			<rect x="231" y="177.7" class="st40" width="20.8" height="11.8"/>
			<g>
				<g>
					<line class="st41" x1="261" y1="194.1" x2="261" y2="200.1"/>
					<line class="st42" x1="261" y1="212.8" x2="261" y2="231.8"/>
					<line class="st41" x1="261" y1="238.2" x2="261" y2="244.1"/>
				</g>
			</g>
			<g>
				<g>
					<line class="st41" x1="270.4" y1="194.1" x2="270.4" y2="200.1"/>
					<line class="st43" x1="270.4" y1="208.2" x2="270.4" y2="220.5"/>
					<line class="st41" x1="270.4" y1="224.5" x2="270.4" y2="230.5"/>
				</g>
			</g>
		</g>
		<path class="st44" d="M257,167.1v-99c0-4.9,4-8.8,8.8-8.8h0c4.9,0,8.8,4,8.8,8.8v99"/>
	</g>
</g>
</svg>
