<?xml version="1.0" encoding="utf-8"?>
<!-- Generator: Adobe Illustrator 21.1.0, SVG Export Plug-In . SVG Version: 6.00 Build 0)  -->
<svg version="1.1" id="Layer_1" xmlns="http://www.w3.org/2000/svg" xmlns:xlink="http://www.w3.org/1999/xlink" x="0px" y="0px"
	 viewBox="0 0 345.2 253.8" style="enable-background:new 0 0 345.2 253.8;" xml:space="preserve">
<style type="text/css">
	.st0{fill:#FAFAFA;}
	.st1{fill:#F2E4F0;stroke:#800080;stroke-width:0.75;stroke-miterlimit:10;}
	.st2{fill:#FFFFFF;stroke:#800080;stroke-width:0.75;stroke-miterlimit:10;}
	.st3{fill:#F2E4F0;}
	.st4{fill:none;stroke:#FF4100;stroke-width:0.75;stroke-miterlimit:10;}
	.st5{fill:#FFFFFF;stroke:#FF4100;stroke-width:0.75;stroke-miterlimit:10;}
	.st6{fill:#FFFFFF;}
</style>
<g>
	<polygon class="st0" points="56.1,248.3 196.3,5.5 336.5,248.3 	"/>
	<g>
		<path class="st1" d="M121.6,214.7L121.6,214.7c-1,0.6-2.2,0.2-2.8-0.7l-36.9-64l3.5-2l36.9,64
			C122.9,212.9,122.6,214.1,121.6,214.7z"/>
		<path class="st1" d="M44.4,214.5L44.4,214.5c-1-0.6-1.3-1.8-0.7-2.8l36.9-64l3.5,2l-36.9,64C46.7,214.7,45.4,215,44.4,214.5z"/>
		<path class="st2" d="M94.7,219.4L94.7,219.4c-1.1,0.2-2.2-0.6-2.3-1.7l-11.9-72.9l4-0.7L96.4,217
			C96.5,218.2,95.8,219.2,94.7,219.4z"/>
		<g>
			
				<rect x="22.7" y="147" transform="matrix(0.914 -0.4058 0.4058 0.914 -59.4925 23.7232)" class="st3" width="7.1" height="10.4"/>
			
				<rect x="11.9" y="152.5" transform="matrix(0.914 -0.4058 0.4058 0.914 -61.1464 20.3171)" class="st3" width="10.9" height="3.7"/>
			
				<rect x="26.5" y="130.1" transform="matrix(0.914 -0.4058 0.4058 0.914 -48.5729 40.2336)" class="st3" width="88.2" height="9.1"/>
			
				<rect x="113.7" y="116.9" transform="matrix(0.914 -0.4058 0.4058 0.914 -39.4496 58.2155)" class="st3" width="7.7" height="10.5"/>
			
				<rect x="117.9" y="98.3" transform="matrix(0.914 -0.4058 0.4058 0.914 -31.6744 67.2288)" class="st3" width="49.6" height="20"/>
			
				<rect x="23.8" y="114.3" transform="matrix(0.914 -0.4058 0.4058 0.914 -46.3755 38.6247)" class="st4" width="88.2" height="28.7"/>
			
				<rect x="108" y="89.8" transform="matrix(0.914 -0.4058 0.4058 0.914 -34.6821 54.7801)" class="st4" width="7.7" height="38.8"/>
			
				<rect x="20.9" y="138.3" transform="matrix(0.914 -0.4058 0.4058 0.914 -57.9751 22.6492)" class="st4" width="7.1" height="19.5"/>
			
				<rect x="10.7" y="146.9" transform="matrix(0.914 -0.4058 0.4058 0.914 -60.1697 19.6113)" class="st4" width="10.9" height="9.6"/>
			
				<rect x="113.1" y="72.1" transform="matrix(0.914 -0.4058 0.4058 0.914 -27.7383 64.3462)" class="st4" width="49.6" height="51"/>
		</g>
		<path class="st4" d="M152.4,69c10.1,7.8,16.6,20,16.6,33.8c0,1.1,0,2.2-0.1,3.3"/>
		<rect x="74.3" y="148" class="st2" width="16.3" height="4.9"/>
		<circle class="st5" cx="82.5" cy="138.2" r="10.7"/>
		<circle class="st5" cx="82.5" cy="138.2" r="4.6"/>
	</g>
	<g>
		<path class="st3" d="M221,104.1L221,104.1L221,104.1c2.9-1.2,5.3-3.6,6.5-6.5l0,0l0,0c1.2,2.9,3.6,5.3,6.5,6.5l0,0l0,0
			c-2.9,1.2-5.3,3.6-6.5,6.5l0,0l0,0C226.3,107.7,224,105.3,221,104.1z"/>
		<path class="st3" d="M250.3,113.1l-1.1-0.3l1.1-0.3c1.5-0.4,2.7-1.6,3.1-3.1l0.3-1.1l0.3,1.1c0.4,1.5,1.6,2.7,3.1,3.1l1.1,0.3
			l-1.1,0.3c-1.5,0.4-2.7,1.6-3.1,3.1l-0.3,1.1l-0.3-1.1C252.9,114.7,251.8,113.5,250.3,113.1z"/>
		<path class="st3" d="M230.7,53.9l-1.1-0.3l1.1-0.3c1.5-0.4,2.7-1.6,3.1-3.1l0.3-1.1l0.3,1.1c0.4,1.5,1.6,2.7,3.1,3.1l1.1,0.3
			l-1.1,0.3c-1.5,0.4-2.7,1.6-3.1,3.1l-0.3,1.1l-0.3-1.1C233.3,55.5,232.2,54.3,230.7,53.9z"/>
		<circle class="st3" cx="198.2" cy="142.8" r="2.9"/>
		<circle class="st3" cx="196.3" cy="84.5" r="1.9"/>
		<g>
			<circle class="st3" cx="278" cy="76" r="14"/>
		</g>
		<g>
			<circle class="st6" cx="278" cy="76" r="1.7"/>
		</g>
		<g>
			<circle class="st6" cx="270.2" cy="79.2" r="1.1"/>
		</g>
		<g>
			<circle class="st6" cx="272.5" cy="67.4" r="1.1"/>
		</g>
	</g>
</g>
</svg>
