<?xml version="1.0" encoding="utf-8"?>
<!-- Generator: Adobe Illustrator 21.1.0, SVG Export Plug-In . SVG Version: 6.00 Build 0)  -->
<svg version="1.1" id="Layer_1" xmlns="http://www.w3.org/2000/svg" xmlns:xlink="http://www.w3.org/1999/xlink" x="0px" y="0px"
	 viewBox="0 0 346.8 268.5" style="enable-background:new 0 0 346.8 268.5;" xml:space="preserve">
<style type="text/css">
	.st0{fill:#FAFAFA;}
	.st1{fill:#F2E4F0;}
	.st2{fill:#FFFFFF;}
	.st3{fill:none;stroke:#800080;stroke-width:0.75;stroke-miterlimit:10;}
	.st4{fill:none;stroke:#FF4100;stroke-width:0.75;stroke-miterlimit:10;}
	.st5{fill:none;stroke:#800080;stroke-width:0.75;stroke-linecap:round;stroke-miterlimit:10;}
</style>
<g>
	<circle class="st0" cx="133.7" cy="134.2" r="125"/>
	<path class="st1" d="M191.6,63.4L191.6,63.4L191.6,63.4c-3.8,1.6-6.8,4.6-8.3,8.3l0,0l0,0c-1.6-3.8-4.6-6.8-8.3-8.3l0,0l0,0
		c3.8-1.6,6.8-4.6,8.3-8.3l0,0l0,0C184.8,58.8,187.8,61.8,191.6,63.4z"/>
	<path class="st1" d="M160.1,87.4l1.4,0.4l-1.4,0.4c-1.9,0.5-3.4,2-4,4l-0.4,1.4l-0.4-1.4c-0.5-1.9-2-3.4-4-4l-1.4-0.4l1.4-0.4
		c1.9-0.5,3.4-2,4-4l0.4-1.4l0.4,1.4C156.6,85.4,158.1,86.9,160.1,87.4z"/>
	<path class="st1" d="M335.5,45.4l1.4,0.4l-1.4,0.4c-1.9,0.5-3.4,2-4,4l-0.4,1.4l-0.4-1.4c-0.5-1.9-2-3.4-4-4l-1.4-0.4l1.4-0.4
		c1.9-0.5,3.4-2,4-4l0.4-1.4l0.4,1.4C332.1,43.4,333.6,44.9,335.5,45.4z"/>
	<circle class="st1" cx="107.3" cy="63.4" r="3.7"/>
	<g>
		<circle class="st2" cx="249.1" cy="121.8" r="59.2"/>
		<path class="st1" d="M258.5,63.4c11.8,10.8,19.2,26.3,19.2,43.6c0,32.7-26.5,59.2-59.2,59.2c-3.2,0-6.3-0.3-9.4-0.8
			c10.5,9.7,24.6,15.6,40,15.6c32.7,0,59.2-26.5,59.2-59.2C308.3,92.3,286.7,67.9,258.5,63.4z"/>
		<circle class="st3" cx="249.1" cy="121.8" r="59.2"/>
		<path class="st4" d="M279.4,132.8c-7.1,3.2-14.6,6.4-22.5,9.4c-48.8,18.6-91.9,24.5-96.2,13.3c-2.5-6.7,9.2-17.9,29.3-29.8"/>
		<path class="st4" d="M295.8,85.3c23-4.5,39.2-3.9,41.7,2.8c3.1,8.2-15.1,23.2-44,37.9"/>
		<polyline class="st4" points="268.5,152.3 280.5,132.6 258.2,126.5 		"/>
		<line class="st5" x1="205.1" y1="82.1" x2="238.9" y2="82.1"/>
		<line class="st5" x1="189.9" y1="121.8" x2="223.6" y2="121.8"/>
		<line class="st5" x1="256.8" y1="163.8" x2="290.5" y2="163.8"/>
		<line class="st5" x1="263.1" y1="169.8" x2="283.5" y2="169.8"/>
		<line class="st5" x1="198.7" y1="90.5" x2="248.2" y2="90.5"/>
		<line class="st5" x1="194.6" y1="98.9" x2="219.2" y2="98.9"/>
	</g>
</g>
</svg>
