<?xml version="1.0" encoding="utf-8"?>
<!-- Generator: Adobe Illustrator 21.1.0, SVG Export Plug-In . SVG Version: 6.00 Build 0)  -->
<svg version="1.1" id="Layer_1" xmlns="http://www.w3.org/2000/svg" xmlns:xlink="http://www.w3.org/1999/xlink" x="0px" y="0px"
	 viewBox="0 0 317.1 311.7" style="enable-background:new 0 0 317.1 311.7;" xml:space="preserve">
<style type="text/css">
	.st0{fill:#E2E2E2;}
	.st1{fill:none;stroke:#FF7900;stroke-width:3;stroke-miterlimit:10;}
	.st2{fill:#891280;}
	.st3{fill:#FFA100;}
	.st4{fill:#C90061;}
	.st5{fill:#FF6100;}
	.st6{fill:#FF1E00;}
	.st7{fill:#FF8000;}
	.st8{fill:#FF4100;}
	.st9{fill:#FF7900;}
	.st10{fill:#DB0033;}
	.st11{fill:#A90080;}
	.st12{fill:#FF9200;}
	.st13{fill:#FFA101;}
	.st14{fill:#C80061;}
	.st15{fill:#FF3E00;}
	.st16{fill:#FFFFFF;}
	.st17{fill:#FAFAFA;}
	.st18{fill:#F2E4F0;stroke:#800080;stroke-width:0.75;stroke-miterlimit:10;}
	.st19{fill:#FFFFFF;stroke:#800080;stroke-width:0.75;stroke-miterlimit:10;}
	.st20{fill:#F2E4F0;}
	.st21{fill:none;stroke:#FF4100;stroke-width:0.75;stroke-miterlimit:10;}
	.st22{fill:#FFFFFF;stroke:#FF4100;stroke-width:0.75;stroke-miterlimit:10;}
	.st23{fill:#FFFFFF;stroke:#C1A2DF;stroke-width:0.75;stroke-linecap:round;stroke-miterlimit:10;}
	.st24{fill:none;stroke:#800080;stroke-width:0.75;stroke-miterlimit:10;}
	.st25{fill:none;stroke:#800080;stroke-width:0.75;stroke-linecap:round;stroke-miterlimit:10;}
	.st26{fill:none;stroke:#FF4100;stroke-width:0.75;stroke-linecap:round;stroke-miterlimit:10;}
	.st27{fill:#F2E4F0;stroke:#A900A9;stroke-width:0.75;stroke-miterlimit:10;}
	.st28{fill:#FFFFFF;stroke:#A900A9;stroke-width:0.75;stroke-miterlimit:10;}
	.st29{fill:none;stroke:#FFFFFF;stroke-width:3;stroke-linecap:round;stroke-miterlimit:10;}
	.st30{fill:none;stroke:#800080;stroke-width:0.6754;stroke-linecap:round;stroke-miterlimit:10;}
	.st31{fill:#FFFFFF;stroke:#FF4100;stroke-width:0.6754;stroke-linecap:round;stroke-miterlimit:10;}
	.st32{fill:#FFFFFF;stroke:#000000;stroke-width:0.75;stroke-linecap:round;stroke-miterlimit:10;}
	.st33{fill:#FFFFFF;stroke:#000000;stroke-width:0.75;stroke-miterlimit:10;}
	.st34{fill:none;stroke:#000000;stroke-width:0.75;stroke-linecap:round;stroke-miterlimit:10;}
	.st35{fill:none;stroke:#000000;stroke-width:0.75;stroke-linecap:round;stroke-miterlimit:10;stroke-dasharray:12.7016,12.7016;}
	.st36{fill:none;stroke:#000000;stroke-width:0.75;stroke-linecap:round;stroke-miterlimit:10;stroke-dasharray:8.1608,8.1608;}
	.st37{fill:#FFFFFF;stroke:#C1A2DF;stroke-width:0.7377;stroke-linecap:round;stroke-miterlimit:10;}
	.st38{fill:#F2E4F0;stroke:#FF4100;stroke-width:0.6683;stroke-linecap:round;stroke-miterlimit:10;}
	.st39{fill:#FFFFFF;stroke:#800080;stroke-width:0.6683;stroke-miterlimit:10;}
	.st40{fill:#F2E4F0;stroke:#FF4100;stroke-width:0.6683;stroke-miterlimit:10;}
	.st41{fill:none;stroke:#800080;stroke-width:0.6683;stroke-linecap:round;stroke-miterlimit:10;}
	.st42{fill:none;stroke:#800080;stroke-width:0.6683;stroke-linecap:round;stroke-miterlimit:10;stroke-dasharray:12.7016,12.7016;}
	.st43{fill:none;stroke:#800080;stroke-width:0.6683;stroke-linecap:round;stroke-miterlimit:10;stroke-dasharray:8.1608,8.1608;}
	.st44{fill:#F2E4F0;stroke:#800080;stroke-width:0.6683;stroke-miterlimit:10;}
	.st45{fill:#800080;}
	.st46{fill:none;stroke:#800080;stroke-width:0.5684;stroke-miterlimit:10;}
	.st47{fill:none;stroke:#800080;stroke-width:0.6116;stroke-linecap:round;stroke-miterlimit:10;}
	.st48{fill:#FFFFFF;stroke:#FF4100;stroke-width:0.75;stroke-linecap:round;stroke-miterlimit:10;}
	.st49{fill:none;stroke:#C1A2DF;stroke-width:0.75;stroke-linecap:round;stroke-miterlimit:10;}
	.st50{fill:none;stroke:#800080;stroke-width:1.3026;stroke-linecap:round;stroke-miterlimit:10;}
	.st51{fill:#FFFFFF;stroke:#FF7900;stroke-width:0.75;stroke-miterlimit:10;}
	.st52{fill:none;stroke:#FF7900;stroke-width:0.75;stroke-miterlimit:10;}
	.st53{fill:none;stroke:#FF7900;stroke-width:0.75;stroke-linecap:round;stroke-miterlimit:10;}
</style>
<g>
	<polygon class="st17" points="310.3,6.2 240.6,305.5 16.3,95.5 	"/>
	<g>
		<rect x="81.9" y="155.9" class="st20" width="5.2" height="56.1"/>
		<rect x="75" y="155.9" class="st24" width="13.8" height="56.1"/>
		<g>
			<path class="st20" d="M113.9,82.1c5.8,34.5-16.9,67.6-51.5,74.4c-5.7,1.1-11.4,1.4-16.9,1.1c-14.9,10.6-27.7,15.8-34.1,13.2
				l-0.2,0.2c10.8,6.7,23.6,10.5,37.2,10.5c39.4,0,71.3-31.9,71.3-71.3C119.7,100.2,117.7,90.7,113.9,82.1z"/>
			<path class="st24" d="M108.7,72.1c7,11,11.1,24.1,11.1,38.2c0,39.4-31.9,71.3-71.3,71.3c-13.7,0-26.4-3.8-37.2-10.5"/>
			
				<ellipse transform="matrix(0.7071 -0.7071 0.7071 0.7071 -67.9205 76.5542)" class="st18" cx="58.4" cy="120.3" rx="69.8" ry="20"/>
			<path class="st16" d="M100.1,100.8c-8.4-6.6-37.1,5.5-66,28.2c-8.6,6.8-16.3,13.8-22.8,20.5c-4.4,9.3-5.4,16.5-2,19.9
				c7.8,7.8,36.2-7.8,63.3-35C84.2,122.9,93.7,111.1,100.1,100.8z"/>
			<g>
				<line class="st21" x1="27.1" y1="88.7" x2="100.3" y2="100.4"/>
				<line class="st21" x1="27.1" y1="88.7" x2="31" y2="166.5"/>
				<polyline class="st22" points="72.1,134.9 19.9,82.7 21,81.7 73.2,133.9 				"/>
				<circle class="st22" cx="22.6" cy="84.4" r="4.7"/>
			</g>
			
				<ellipse transform="matrix(0.7071 -0.7071 0.7071 0.7071 -67.9205 76.5542)" class="st24" cx="58.4" cy="120.3" rx="69.8" ry="20"/>
		</g>
		<path class="st19" d="M120.9,220h-78c-3.1,0-5.6-2.5-5.6-5.6l0,0c0-3.1,2.5-5.6,5.6-5.6h78c3.1,0,5.6,2.5,5.6,5.6l0,0
			C126.5,217.5,124,220,120.9,220z"/>
		<path class="st18" d="M151.8,231.2H12v-5.6c0-3.1,2.5-5.6,5.6-5.6h128.5c3.1,0,5.6,2.5,5.6,5.6V231.2z"/>
	</g>
</g>
</svg>
