<?xml version="1.0" encoding="utf-8"?>
<!-- Generator: Adobe Illustrator 21.1.0, SVG Export Plug-In . SVG Version: 6.00 Build 0)  -->
<svg version="1.1" id="Layer_1" xmlns="http://www.w3.org/2000/svg" xmlns:xlink="http://www.w3.org/1999/xlink" x="0px" y="0px"
	 viewBox="0 0 426.6 303.8" style="enable-background:new 0 0 426.6 303.8;" xml:space="preserve">
<style type="text/css">
	.st0{fill:#FAFAFA;}
	.st1{fill:#F2E4F0;}
	.st2{fill:none;stroke:#800080;stroke-width:0.75;stroke-miterlimit:10;}
	.st3{fill:none;stroke:#FF4100;stroke-width:0.75;stroke-linecap:round;stroke-miterlimit:10;}
	.st4{fill:#FFFFFF;stroke:#800080;stroke-width:0.75;stroke-miterlimit:10;}
	.st5{fill:none;stroke:#800080;stroke-width:0.75;stroke-linecap:round;stroke-miterlimit:10;}
</style>
<g>
	
		<rect x="52" y="49.6" transform="matrix(0.7071 -0.7071 0.7071 0.7071 -62.2408 153.609)" class="st0" width="204.6" height="204.6"/>
	<g>
		<path class="st1" d="M348.1,200.2L348.1,200.2L348.1,200.2c-2.3,1-4.2,2.8-5.1,5.1l0,0l0,0c-1-2.3-2.8-4.2-5.1-5.1l0,0l0,0
			c2.3-1,4.2-2.8,5.1-5.1l0,0l0,0C344,197.4,345.8,199.2,348.1,200.2z"/>
		<path class="st1" d="M384.5,103.3l0.8,0.2l-0.8,0.2c-1.1,0.3-2,1.2-2.3,2.3l-0.2,0.8l-0.2-0.8c-0.3-1.1-1.2-2-2.3-2.3l-0.8-0.2
			l0.8-0.2c1.1-0.3,2-1.2,2.3-2.3l0.2-0.8l0.2,0.8C382.5,102.1,383.4,103,384.5,103.3z"/>
		<path class="st1" d="M142.8,107.5l1.4,0.4l-1.4,0.4c-2,0.6-3.6,2.2-4.2,4.2l-0.4,1.4l-0.4-1.4c-0.6-2-2.2-3.6-4.2-4.2l-1.4-0.4
			l1.4-0.4c2-0.6,3.6-2.2,4.2-4.2l0.4-1.4l0.4,1.4C139.1,105.3,140.7,106.9,142.8,107.5z"/>
		<path class="st1" d="M176.7,194.6l1.4,0.4l-1.4,0.4c-2,0.6-3.6,2.2-4.2,4.2l-0.4,1.4l-0.4-1.4c-0.6-2-2.2-3.6-4.2-4.2L166,195
			l1.4-0.4c2-0.6,3.6-2.2,4.2-4.2l0.4-1.4l0.4,1.4C173.1,192.5,174.7,194.1,176.7,194.6z"/>
		<path class="st1" d="M377.9,180l0.7,0.2l-0.7,0.2c-1,0.3-1.8,1.1-2.1,2.1l-0.2,0.7l-0.2-0.7c-0.3-1-1.1-1.8-2.1-2.1l-0.7-0.2
			l0.7-0.2c1-0.3,1.8-1.1,2.1-2.1l0.2-0.7l0.2,0.7C376.1,178.9,376.9,179.7,377.9,180z"/>
		<circle class="st2" cx="178.2" cy="135" r="3.9"/>
		<circle class="st2" cx="362.6" cy="156.5" r="3.9"/>
		<circle class="st2" cx="346.8" cy="104.3" r="2.6"/>
		<circle class="st2" cx="319.9" cy="206" r="5.7"/>
		<path class="st3" d="M266,149.5c0,0,3.4-8.7-8.7-7.5c-10.8,1-14.3,7.1-11.9,10.5c9.1,13,65.9,0.2,67.5-15.8
			c2.2-21.2-51.8-20.4-70-16.5c-27,5.8-75,29.8-46.1,55.4c39.6,35,194.3,23.2,219.7-65.6"/>
		<path class="st3" d="M273.6,149.5c12.3-2.7,18.4-12,9.2-16.3c-19.1-9.1-59.6-0.7-62.7,17c-4.2,24,46.9,20.5,65.3,17.7
			c51.4-7.7,75.6-37.9,45.6-56.5c-45.6-28.3-177.8-13.7-215.6,71"/>
		<circle class="st4" cx="334.8" cy="113.6" r="5.7"/>
		<g>
			<circle class="st4" cx="224.9" cy="92.2" r="14.3"/>
			<path class="st5" d="M232.2,94.9c-1.7,0.8-3.5,1.5-5.4,2.3c-11.8,4.5-22.2,5.9-23.3,3.2c-0.6-1.6,2.2-4.3,7.1-7.2"/>
			<path class="st5" d="M236.2,83.4c5.6-1.1,9.5-0.9,10.1,0.7c0.8,2-3.6,5.6-10.6,9.2"/>
		</g>
		<circle class="st4" cx="232.9" cy="192.3" r="8"/>
	</g>
</g>
</svg>
