<?xml version="1.0" encoding="utf-8"?>
<!-- Generator: Adobe Illustrator 21.1.0, SVG Export Plug-In . SVG Version: 6.00 Build 0)  -->
<svg version="1.1" id="Layer_1" xmlns="http://www.w3.org/2000/svg" xmlns:xlink="http://www.w3.org/1999/xlink" x="0px" y="0px"
	 viewBox="0 0 357.1 249.3" style="enable-background:new 0 0 357.1 249.3;" xml:space="preserve">
<style type="text/css">
	.st0{fill:#FAFAFA;}
	.st1{fill:none;stroke:#FF4100;stroke-width:0.75;stroke-miterlimit:10;}
	.st2{fill:#FFFFFF;stroke:#800080;stroke-width:0.75;stroke-miterlimit:10;}
</style>
<g>
	<circle class="st0" cx="124.5" cy="124.6" r="120.3"/>
	<g>
		<polyline class="st1" points="161.2,136.5 207.5,117.4 246.6,38.7 328.4,54.3 328.4,144.8 261.2,177.1 264.1,212.2 		"/>
		<line class="st1" x1="246.6" y1="38.7" x2="328.4" y2="144.8"/>
		<path class="st2" d="M274.5,215.1L274.5,215.1L274.5,215.1c-5.3,0.6-10.1,3.3-13.4,7.4l0,0l0,0c-0.6-5.3-3.3-10.1-7.4-13.4l0,0
			l0,0c5.3-0.6,10.1-3.3,13.4-7.4l0,0l0,0C267.6,207,270.3,211.8,274.5,215.1z"/>
		<path class="st2" d="M333.2,144.2l2.1,0.6l-2.1,0.6c-3,0.9-5.4,3.2-6.3,6.3l-0.6,2.1l-0.6-2.1c-0.9-3-3.2-5.4-6.3-6.3l-2.1-0.6
			l2.1-0.6c3-0.9,5.4-3.2,6.3-6.3l0.6-2.1l0.6,2.1C327.7,140.9,330.1,143.3,333.2,144.2z"/>
		<path class="st2" d="M250.8,38.4l1.3,0.4l-1.3,0.4c-1.9,0.5-3.3,2-3.9,3.9l-0.4,1.3l-0.4-1.3c-0.5-1.9-2-3.3-3.9-3.9l-1.3-0.4
			l1.3-0.4c1.9-0.5,3.3-2,3.9-3.9l0.4-1.3l0.4,1.3C247.5,36.4,248.9,37.8,250.8,38.4z"/>
		<path class="st2" d="M271.2,117l1.3,0.4l-1.3,0.4c-1.9,0.5-3.3,2-3.9,3.9l-0.4,1.3l-0.4-1.3c-0.5-1.9-2-3.3-3.9-3.9l-1.3-0.4
			l1.3-0.4c1.9-0.5,3.3-2,3.9-3.9l0.4-1.3l0.4,1.3C267.9,115,269.4,116.5,271.2,117z"/>
		<path class="st2" d="M165.5,136.2l1.3,0.4l-1.3,0.4c-1.9,0.5-3.3,2-3.9,3.9l-0.4,1.3l-0.4-1.3c-0.5-1.9-2-3.3-3.9-3.9l-1.3-0.4
			l1.3-0.4c1.9-0.5,3.3-2,3.9-3.9l0.4-1.3l0.4,1.3C162.1,134.2,163.6,135.6,165.5,136.2z"/>
		<path class="st2" d="M350.9,117.2l0.7,0.2l-0.7,0.2c-0.9,0.3-1.7,1-1.9,1.9l-0.2,0.7l-0.2-0.7c-0.3-0.9-1-1.7-1.9-1.9l-0.7-0.2
			l0.7-0.2c0.9-0.3,1.7-1,1.9-1.9l0.2-0.7l0.2,0.7C349.2,116.2,350,116.9,350.9,117.2z"/>
		<circle class="st2" cx="185.2" cy="85.5" r="3.6"/>
		<circle class="st2" cx="317.2" cy="91.8" r="3.6"/>
		<circle class="st2" cx="303.4" cy="74.9" r="2.3"/>
		<circle class="st2" cx="201.8" cy="160.4" r="2.3"/>
		<circle class="st2" cx="264.1" cy="177.1" r="5.1"/>
		<circle class="st2" cx="328.4" cy="54.3" r="5.1"/>
		<circle class="st2" cx="209.1" cy="117.4" r="7.3"/>
	</g>
</g>
</svg>
