<?xml version="1.0" encoding="utf-8"?>
<!-- Generator: Adobe Illustrator 26.0.1, SVG Export Plug-In . SVG Version: 6.00 Build 0)  -->
<svg version="1.1" id="Layer_1" xmlns="http://www.w3.org/2000/svg" xmlns:xlink="http://www.w3.org/1999/xlink" x="0px" y="0px"
	 viewBox="0 0 1920 1080" style="enable-background:new 0 0 1920 1080;" xml:space="preserve">
<style type="text/css">
	.st0{fill:url(#SVGID_1_);}
	.st1{fill:url(#SVGID_00000140736682132947412220000009266565872598773891_);}
	.st2{fill:url(#SVGID_00000010996091241240944290000013080737437617168526_);}
	.st3{fill:url(#SVGID_00000150060485335271596780000003705115217806812046_);}
	.st4{fill:url(#SVGID_00000147907463531090026200000013589733442064245123_);}
	.st5{fill:url(#SVGID_00000045614761825648463640000016475569359005780898_);}
	.st6{fill:url(#SVGID_00000072273077891624666020000018120332699303617454_);}
	.st7{fill:url(#SVGID_00000113314394972432358020000002462902663838556336_);}
	.st8{fill:url(#SVGID_00000124840039419792314130000016573079432062996913_);}
	.st9{fill:url(#SVGID_00000076579659042450698440000000768578854494717869_);}
</style>
<g>
	<g>
		<linearGradient id="SVGID_1_" gradientUnits="userSpaceOnUse" x1="629.7603" y1="540.0002" x2="1290.2397" y2="540.0002">
			<stop  offset="0.2" style="stop-color:#29366D"/>
			<stop  offset="0.5" style="stop-color:#243B55"/>
			<stop  offset="0.8" style="stop-color:#29366D"/>
		</linearGradient>
		<path class="st0" d="M1250.9,754.6c-7.6,0-15.1-2.2-21.7-6.2L993.5,603.1L946.1,574L696.5,420.2c-0.2-0.7-20.1-66.8-66.7-66.8
			c5.6-16.5,21.8-28,39.3-28c7.6,0,15.1,2.2,21.7,6.2l235.7,145.3l47.5,29.1l249.6,153.8c0.2,0.7,20.1,66.8,66.7,66.8
			C1284.6,743.1,1268.5,754.6,1250.9,754.6z"/>
	</g>
	<g>
		
			<linearGradient id="SVGID_00000045608739555246690300000003377260310237996727_" gradientUnits="userSpaceOnUse" x1="629.7601" y1="540.0001" x2="1290.24" y2="540.0001">
			<stop  offset="0.2" style="stop-color:#29366D"/>
			<stop  offset="0.5" style="stop-color:#243B55"/>
			<stop  offset="0.8" style="stop-color:#29366D"/>
		</linearGradient>
		<path style="fill:url(#SVGID_00000045608739555246690300000003377260310237996727_);" d="M1290.2,726.6c-8.1,24-37.5,36.3-61,21.8
			L993.5,603.1L946.1,574L696.5,420.2c0,0-19.5-66.8-66.8-66.8c8.1-24,37.5-36.3,61-21.8l235.7,145.3l47.4,29.1l249.6,153.8
			C1223.5,659.8,1243,726.6,1290.2,726.6z"/>
	</g>
	
		<linearGradient id="SVGID_00000088845410286310458240000014759413273961404802_" gradientUnits="userSpaceOnUse" x1="681.3111" y1="732.3501" x2="952.6802" y2="732.3501">
		<stop  offset="0.25" style="stop-color:#006999"/>
		<stop  offset="0.75" style="stop-color:#4DCCBD"/>
	</linearGradient>
	<path style="fill:url(#SVGID_00000088845410286310458240000014759413273961404802_);" d="M696.5,812.8
		c-17.7-17.7-16.8-39.9-12.9-55.4c4.2-16.8,12.8-29.5,12.9-29.6l89.5-55.2c27.9-17.2,74.8-20.8,109.3-20.8c31.8,0,57.1,3,57.4,3.1
		L696.5,812.8L696.5,812.8z"/>
	
		<linearGradient id="SVGID_00000178185945358695990330000011073824891531923612_" gradientUnits="userSpaceOnUse" x1="681.2745" y1="732.3501" x2="952.6801" y2="732.3501">
		<stop  offset="0.25" style="stop-color:#006999"/>
		<stop  offset="0.75" style="stop-color:#4DCCBD"/>
	</linearGradient>
	<path style="fill:url(#SVGID_00000178185945358695990330000011073824891531923612_);" d="M952.7,654.9L696.5,812.8
		c-34.3-34.3,0-85,0-85l89.5-55.2c27.4-16.8,72.8-20.8,109.3-20.8C927.4,651.9,952.7,654.9,952.7,654.9z"/>
	
		<linearGradient id="SVGID_00000090293294651446991230000009338306212817547937_" gradientUnits="userSpaceOnUse" x1="662.0352" y1="822.6094" x2="662.0352" y2="353.4097">
		<stop  offset="0.25" style="stop-color:#006999"/>
		<stop  offset="0.75" style="stop-color:#29366D"/>
	</linearGradient>
	<path style="fill:url(#SVGID_00000090293294651446991230000009338306212817547937_);" d="M669.1,822.6c-22.9,0-41.5-18.6-41.5-41.5
		V366.9c0-4.7,0.7-9.2,2.2-13.5c46.7,0,66.6,66.1,66.8,66.8v307.7c-0.3,0.5-33.9,51.1,0,85l-5.8,3.6
		C684.1,820.5,676.7,822.6,669.1,822.6z"/>
	
		<linearGradient id="SVGID_00000149361117182064427830000004137364257505273774_" gradientUnits="userSpaceOnUse" x1="662.035" y1="822.6084" x2="662.035" y2="353.41">
		<stop  offset="0.25" style="stop-color:#006999"/>
		<stop  offset="0.75" style="stop-color:#29366D"/>
	</linearGradient>
	<path style="fill:url(#SVGID_00000149361117182064427830000004137364257505273774_);" d="M696.5,727.8c0,0-34.3,50.7,0,85l-5.8,3.5
		c-27.6,17-63.2-2.8-63.2-35.3V366.9c0-4.8,0.8-9.3,2.2-13.5c47.2,0,66.8,66.8,66.8,66.8V727.8z"/>
	
		<linearGradient id="SVGID_00000075859995986227123050000000650529030110360995_" gradientUnits="userSpaceOnUse" x1="967.3228" y1="347.6494" x2="1238.6919" y2="347.6494">
		<stop  offset="0.25" style="stop-color:#4DCCBD"/>
		<stop  offset="0.75" style="stop-color:#006999"/>
	</linearGradient>
	<path style="fill:url(#SVGID_00000075859995986227123050000000650529030110360995_);" d="M1024.7,428.1c-31.8,0-57.1-3-57.4-3.1
		l256.2-157.9c17.7,17.7,16.8,39.9,12.9,55.4c-4.2,16.8-12.8,29.5-12.9,29.6l-89.5,55.2C1106.1,424.5,1059.1,428.1,1024.7,428.1z"/>
	
		<linearGradient id="SVGID_00000101073269252550111690000014409692889059535787_" gradientUnits="userSpaceOnUse" x1="967.3226" y1="347.6493" x2="1238.7281" y2="347.6493">
		<stop  offset="0.25" style="stop-color:#4DCCBD"/>
		<stop  offset="0.75" style="stop-color:#006999"/>
	</linearGradient>
	<path style="fill:url(#SVGID_00000101073269252550111690000014409692889059535787_);" d="M967.3,425.1l256.2-157.9
		c34.3,34.3,0,85,0,85l-89.5,55.2c-27.4,16.8-72.8,20.8-109.3,20.8C992.6,428.1,967.3,425.1,967.3,425.1z"/>
	
		<linearGradient id="SVGID_00000051341490553637514990000008825484962431589281_" gradientUnits="userSpaceOnUse" x1="1257.9648" y1="726.5908" x2="1257.9648" y2="257.3906">
		<stop  offset="0.25" style="stop-color:#29366D"/>
		<stop  offset="0.75" style="stop-color:#006999"/>
	</linearGradient>
	<path style="fill:url(#SVGID_00000051341490553637514990000008825484962431589281_);" d="M1290.2,726.6
		c-46.7,0-66.6-66.1-66.8-66.8V352.2c0.3-0.5,33.9-51.1,0-85l5.8-3.6c6.6-4.1,14.1-6.2,21.7-6.2c22.9,0,41.5,18.6,41.5,41.5v414.2
		C1292.4,717.8,1291.7,722.3,1290.2,726.6L1290.2,726.6z"/>
	
		<linearGradient id="SVGID_00000073710484336513534320000014714131363514358972_" gradientUnits="userSpaceOnUse" x1="1257.9651" y1="726.5901" x2="1257.9651" y2="257.3917">
		<stop  offset="0.25" style="stop-color:#29366D"/>
		<stop  offset="0.75" style="stop-color:#006999"/>
	</linearGradient>
	<path style="fill:url(#SVGID_00000073710484336513534320000014714131363514358972_);" d="M1292.4,298.9v414.2
		c0,4.8-0.8,9.3-2.2,13.5c-47.2,0-66.8-66.8-66.8-66.8V352.2c0,0,34.3-50.7,0-85l5.8-3.5C1256.9,246.6,1292.4,266.5,1292.4,298.9z"
		/>
</g>
</svg>
