<?xml version="1.0" encoding="utf-8"?>
<!-- Generator: Adobe Illustrator 26.0.1, SVG Export Plug-In . SVG Version: 6.00 Build 0)  -->
<svg version="1.1" id="Layer_1" xmlns="http://www.w3.org/2000/svg" xmlns:xlink="http://www.w3.org/1999/xlink" x="0px" y="0px"
	 viewBox="0 0 1920 305.3" style="enable-background:new 0 0 1920 305.3;" xml:space="preserve">
<style type="text/css">
	.st0{fill:url(#SVGID_1_);}
	.st1{fill:url(#SVGID_00000026155404394070659470000000802957647718747789_);}
	.st2{fill:url(#SVGID_00000135686928514976933060000007846544097589091258_);}
	.st3{fill:url(#SVGID_00000112607080805513671520000000394067726964045966_);}
	.st4{fill:url(#SVGID_00000029043057891020220010000004703386697653054377_);}
	.st5{fill:url(#SVGID_00000057144743584156397200000018019373758369496492_);}
	.st6{fill:url(#SVGID_00000013187001554015031430000007162187483205161099_);}
	.st7{fill:url(#SVGID_00000109018148962608038930000018270024639922180251_);}
	.st8{fill:url(#SVGID_00000124857546771229599480000017886554014963467436_);}
	.st9{fill:url(#SVGID_00000134249264782684532530000013008415454523467706_);}
	.st10{fill:#4DCCBD;}
	.st11{fill:#006999;}
</style>
<g>
	
		<linearGradient id="SVGID_1_" gradientUnits="userSpaceOnUse" x1="106.19" y1="537.9969" x2="462.9801" y2="537.9969" gradientTransform="matrix(1 0 0 1 0 -385.33)">
		<stop  offset="0.2" style="stop-color:#29366D"/>
		<stop  offset="0.5" style="stop-color:#243B55"/>
		<stop  offset="0.8" style="stop-color:#29366D"/>
	</linearGradient>
	<path class="st0" d="M441.7,268.6c-4.1,0-8.2-1.2-11.7-3.4l-127.3-78.5L277.1,171L142.3,87.9c-0.1-0.4-10.9-36.1-36.1-36.1
		c3.2-9,11.7-15.1,21.2-15.1c4.1,0,8.2,1.2,11.7,3.4l127.3,78.5l25.6,15.7l134.8,83.1c0.1,0.4,10.9,36.1,36.1,36.1
		C459.8,262.5,451.3,268.5,441.7,268.6z"/>
	
		<linearGradient id="SVGID_00000137128109455434418600000003589221667725769132_" gradientUnits="userSpaceOnUse" x1="106.19" y1="537.9969" x2="463.0001" y2="537.9969" gradientTransform="matrix(1 0 0 1 0 -385.33)">
		<stop  offset="0.2" style="stop-color:#29366D"/>
		<stop  offset="0.5" style="stop-color:#243B55"/>
		<stop  offset="0.8" style="stop-color:#29366D"/>
	</linearGradient>
	<path style="fill:url(#SVGID_00000137128109455434418600000003589221667725769132_);" d="M463,253.5c-4,11.7-16.8,17.9-28.5,13.9
		c-1.6-0.5-3.1-1.3-4.5-2.1l-127.3-78.5L277.1,171L142.3,87.9c0,0-10.6-36.1-36.1-36.1c4-11.7,16.8-17.9,28.5-13.9
		c1.6,0.5,3.1,1.3,4.5,2.1l127.3,78.5l25.6,15.7L427,217.4C427,217.4,437.5,253.5,463,253.5z"/>
	
		<linearGradient id="SVGID_00000011002123188828314420000010405316113297737151_" gradientUnits="userSpaceOnUse" x1="134.0357" y1="641.9069" x2="280.5901" y2="641.9069" gradientTransform="matrix(1 0 0 1 0 -385.33)">
		<stop  offset="0.25" style="stop-color:#006999"/>
		<stop  offset="0.75" style="stop-color:#4DCCBD"/>
	</linearGradient>
	<path style="fill:url(#SVGID_00000011002123188828314420000010405316113297737151_);" d="M142.3,300c-9.6-9.6-9.1-21.5-6.9-29.9
		c1.5-5.7,3.8-11.1,6.9-16l48.3-29.8c15.1-9.3,40.4-11.2,59-11.2c10.4,0,20.7,0.5,31,1.7L142.3,300z"/>
	
		<linearGradient id="SVGID_00000116916708726517357290000017675001173727649462_" gradientUnits="userSpaceOnUse" x1="134.0189" y1="641.9018" x2="280.6301" y2="641.9018" gradientTransform="matrix(1 0 0 1 0 -385.33)">
		<stop  offset="0.25" style="stop-color:#006999"/>
		<stop  offset="0.75" style="stop-color:#4DCCBD"/>
	</linearGradient>
	<path style="fill:url(#SVGID_00000116916708726517357290000017675001173727649462_);" d="M280.6,214.7L142.3,300
		c-18.5-18.5,0-45.9,0-45.9l48.4-29.8c14.8-9.1,39.3-11.2,59-11.2C260,213.1,270.3,213.6,280.6,214.7z"/>
	
		<linearGradient id="SVGID_00000176036819831031223060000003687948968139634867_" gradientUnits="userSpaceOnUse" x1="123.625" y1="690.6669" x2="123.625" y2="437.1969" gradientTransform="matrix(1 0 0 1 0 -385.33)">
		<stop  offset="0.25" style="stop-color:#006999"/>
		<stop  offset="0.75" style="stop-color:#29366D"/>
	</linearGradient>
	<path style="fill:url(#SVGID_00000176036819831031223060000003687948968139634867_);" d="M127.4,305.3c-12.4,0-22.4-10-22.4-22.4
		V59.2c0-2.5,0.4-4.9,1.2-7.3c25.2,0,36,35.7,36.1,36.1v166.2c-0.2,0.3-18.3,27.6,0,45.9l-3.1,1.9
		C135.6,304.2,131.6,305.3,127.4,305.3z"/>
	
		<linearGradient id="SVGID_00000106835187904147500600000014595818976986145158_" gradientUnits="userSpaceOnUse" x1="123.625" y1="690.6308" x2="123.625" y2="437.1969" gradientTransform="matrix(1 0 0 1 0 -385.33)">
		<stop  offset="0.25" style="stop-color:#006999"/>
		<stop  offset="0.75" style="stop-color:#29366D"/>
	</linearGradient>
	<path style="fill:url(#SVGID_00000106835187904147500600000014595818976986145158_);" d="M142.3,254.1c0,0-18.5,27.4,0,45.9
		l-3.1,1.9c-10.5,6.5-24.3,3.2-30.8-7.3c-2.2-3.5-3.3-7.6-3.3-11.8V59.2c0-2.5,0.4-4.9,1.2-7.3c25.5,0,36.1,36.1,36.1,36.1V254.1z"
		/>
	
		<linearGradient id="SVGID_00000166665482817182554430000015616236639560203678_" gradientUnits="userSpaceOnUse" x1="288.54" y1="434.0919" x2="435.1343" y2="434.0919" gradientTransform="matrix(1 0 0 1 0 -385.33)">
		<stop  offset="0.25" style="stop-color:#4DCCBD"/>
		<stop  offset="0.75" style="stop-color:#006999"/>
	</linearGradient>
	<path style="fill:url(#SVGID_00000166665482817182554430000015616236639560203678_);" d="M319.5,92.2c-10.4,0-20.7-0.5-31-1.7
		L426.9,5.3c9.6,9.6,9.1,21.5,7,29.9c-1.5,5.7-3.8,11.1-7,16L378.6,81C363.5,90.3,338.1,92.2,319.5,92.2z"/>
	
		<linearGradient id="SVGID_00000000910540765548497220000011982469626855208869_" gradientUnits="userSpaceOnUse" x1="288.54" y1="434.0919" x2="435.1512" y2="434.0919" gradientTransform="matrix(1 0 0 1 0 -385.33)">
		<stop  offset="0.25" style="stop-color:#4DCCBD"/>
		<stop  offset="0.75" style="stop-color:#006999"/>
	</linearGradient>
	<path style="fill:url(#SVGID_00000000910540765548497220000011982469626855208869_);" d="M288.5,90.6L426.9,5.3
		c18.5,18.5,0,45.9,0,45.9L378.6,81c-14.8,9.1-39.3,11.2-59,11.2C309.2,92.2,298.8,91.7,288.5,90.6z"/>
	
		<linearGradient id="SVGID_00000098928105065477431170000010866999333508266898_" gradientUnits="userSpaceOnUse" x1="445.5405" y1="638.7969" x2="445.5405" y2="385.3231" gradientTransform="matrix(1 0 0 1 0 -385.33)">
		<stop  offset="0.25" style="stop-color:#29366D"/>
		<stop  offset="0.75" style="stop-color:#006999"/>
	</linearGradient>
	<path style="fill:url(#SVGID_00000098928105065477431170000010866999333508266898_);" d="M463,253.5c-25.2,0-36-35.7-36.1-36.1
		V51.2c0.2-0.3,18.3-27.6,0-45.9l3.1-1.9c10.5-6.5,24.3-3.3,30.8,7.2c2.2,3.6,3.4,7.7,3.4,11.9v223.8
		C464.2,248.7,463.8,251.1,463,253.5z"/>
	
		<linearGradient id="SVGID_00000029736340956576920150000006806152205510407051_" gradientUnits="userSpaceOnUse" x1="445.5552" y1="638.7969" x2="445.5552" y2="385.3444" gradientTransform="matrix(1 0 0 1 0 -385.33)">
		<stop  offset="0.25" style="stop-color:#29366D"/>
		<stop  offset="0.75" style="stop-color:#006999"/>
	</linearGradient>
	<path style="fill:url(#SVGID_00000029736340956576920150000006806152205510407051_);" d="M464.2,22.4v223.8c0,2.5-0.4,4.9-1.2,7.3
		c-25.5,0-36.1-36.1-36.1-36.1V51.2c0,0,18.5-27.4,0-45.9l3.1-1.9c10.5-6.5,24.3-3.3,30.8,7.3C463,14.2,464.2,18.3,464.2,22.4z"/>
	<path class="st10" d="M578.9,38l-89.1,228.8h49l18.9-52h91.5l20,52h50.2L627.8,38L578.9,38z M571.9,176.2l30.9-84.9l31.5,84.9
		H571.9z"/>
	<polygon class="st10" points="804.7,207.3 746.9,38 696.8,38 778.5,266.7 827.8,266.7 909.8,38 860.8,38 	"/>
	<path class="st11" d="M1095.6,63.4c-9.4-10-21.3-17.3-34.5-21.1c-10-2.9-24.5-4.4-43.5-4.4h-84.4v228.8h86.9
		c17.1,0,30.7-1.6,40.9-4.8c13.6-4.4,24.4-10.5,32.5-18.3c10.6-10.3,18.8-23.8,24.5-40.4c4.7-13.6,7-29.9,7-48.7
		c0-21.4-2.5-39.5-7.5-54.1S1105.2,73.5,1095.6,63.4z M1072.5,194.4c-3.1,10.3-7.2,17.6-12.1,22.1c-5.3,4.7-11.7,7.9-18.7,9.5
		c-5.7,1.5-15,2.2-27.9,2.2h-34.5V76.7h20.8c18.8,0,31.5,0.7,37.9,2.2c8.7,1.9,15.8,5.5,21.4,10.8c5.6,5.3,10,12.7,13.1,22.2
		c3.1,9.5,4.7,23,4.7,40.7S1075.6,184.2,1072.5,194.4z"/>
	<polygon class="st11" points="1210.3,165.9 1325.2,165.9 1325.2,127.4 1210.3,127.4 1210.3,76.7 1333.7,76.7 1333.7,38 1164.1,38 
		1164.1,266.7 1338.1,266.7 1338.1,228.2 1210.3,228.2 	"/>
	<path class="st11" d="M1504.6,219.4c-8.8,7.8-19.4,11.7-31.7,11.7c-16.7,0-30.2-6.1-40.6-18.4c-10.4-12.3-15.6-32.9-15.6-61.8
		c0-27.2,5.3-47,15.8-59.1c10.6-12.2,24.3-18.3,41.3-18.3c12.3,0,22.7,3.4,31.3,10.3c8.6,6.9,14.2,16.2,16.9,28.1l45.7-10.9
		c-5.2-18.3-13-32.4-23.4-42.1c-17.5-16.5-40.2-24.8-68.2-24.8c-32.1,0-57.9,10.5-77.6,31.6c-19.7,21.1-29.5,50.6-29.5,88.7
		c0,36,9.8,64.4,29.3,85.1c19.6,20.7,44.5,31.1,74.9,31.1c24.6,0,44.8-6.1,60.8-18.2s27.4-30.7,34.2-55.6l-44.8-14.2
		C1519.8,199.4,1513.5,211.6,1504.6,219.4z"/>
	<polygon class="st11" points="1724.2,127.1 1810.3,38 1748.2,38 1654.9,139.5 1654.9,38 1608.7,38 1608.7,266.7 1654.9,266.7 
		1654.9,197.6 1692.3,159.4 1755.2,266.7 1815,266.7 	"/>
</g>
</svg>
